<svg xmlns="http://www.w3.org/2000/svg" xmlns:xlink="http://www.w3.org/1999/xlink" width="500" zoomAndPan="magnify" viewBox="0 0 375 374.999991" height="500" preserveAspectRatio="xMidYMid meet" version="1.0"><defs><g/><clipPath id="a1c992161a"><path d="M 216.410156 150.488281 L 273.476562 150.488281 L 273.476562 169.738281 L 216.410156 169.738281 Z M 216.410156 150.488281 " clip-rule="nonzero"/></clipPath><clipPath id="0e3d85ec1d"><path d="M 243.898438 158.023438 C 245.25 160.351562 244.574219 160.800781 244.050781 160.648438 C 242.851562 160.351562 239.175781 155.023438 238.949219 153.824219 C 238.875 153.449219 239.023438 153.148438 239.175781 153 C 239.398438 152.851562 240 152.851562 240.148438 153 C 240.523438 153.300781 240.675781 154.875 240.449219 155.101562 C 240.300781 155.175781 239.773438 154.949219 239.625 154.726562 C 239.476562 154.5 239.550781 154.050781 239.699219 153.601562 C 240 152.851562 241.199219 150.601562 241.648438 150.523438 C 241.949219 150.523438 242.175781 150.898438 242.324219 151.273438 C 242.550781 152.023438 242.476562 153.675781 241.949219 155.023438 C 241.273438 156.75 238.425781 160.648438 237.976562 160.574219 C 237.75 160.574219 237.601562 159.976562 237.75 159.675781 C 238.273438 158.851562 243.898438 158.023438 245.175781 158.023438 C 245.625 158.023438 245.925781 158.023438 246.074219 158.25 C 246.226562 158.398438 246.300781 159 246.074219 159.226562 C 245.550781 159.824219 240.824219 159.824219 239.925781 159.449219 C 239.550781 159.300781 239.324219 159 239.324219 158.773438 C 239.324219 158.550781 239.476562 158.25 239.925781 157.949219 C 241.425781 156.898438 251.550781 154.273438 253.351562 154.425781 C 253.800781 154.5 254.101562 154.648438 254.25 154.875 C 254.324219 155.175781 254.25 155.550781 253.875 155.851562 C 252.523438 156.898438 240.601562 157.648438 238.875 157.050781 C 238.425781 156.824219 238.199219 156.523438 238.199219 156.300781 C 238.125 156.074219 238.351562 155.773438 238.648438 155.550781 C 239.175781 155.25 241.125 155.101562 241.648438 155.398438 C 242.023438 155.625 242.25 156.300781 242.101562 156.601562 C 241.726562 157.273438 237.449219 158.175781 236.773438 157.726562 C 236.476562 157.425781 236.398438 156.675781 236.625 156.300781 C 237.148438 155.625 240.75 155.398438 241.726562 155.625 C 242.175781 155.699219 242.550781 155.851562 242.625 156.074219 C 242.699219 156.375 242.476562 156.75 242.175781 157.050781 C 241.574219 157.5 238.949219 158.324219 238.273438 158.023438 C 237.898438 157.800781 237.601562 157.125 237.824219 156.675781 C 238.273438 155.625 245.023438 153.449219 246.226562 153.675781 C 246.675781 153.675781 246.898438 153.898438 246.976562 154.125 C 247.050781 154.351562 246.976562 154.800781 246.601562 155.101562 C 245.101562 156.148438 230.699219 156.976562 229.949219 156 C 229.726562 155.773438 229.875 155.398438 230.25 155.023438 C 231.300781 153.898438 239.175781 150.523438 240.75 150.601562 C 241.199219 150.675781 241.5 150.898438 241.574219 151.125 C 241.648438 151.425781 241.5 151.726562 241.125 152.023438 C 240 153.074219 233.101562 154.648438 231.148438 155.101562 C 230.398438 155.25 229.726562 155.550781 229.425781 155.324219 C 229.199219 155.101562 229.125 154.351562 229.351562 154.050781 C 230.023438 153.375 235.273438 153.375 236.398438 153.75 C 236.851562 153.898438 237.226562 154.125 237.148438 154.425781 C 237.148438 155.175781 232.125 158.25 230.851562 158.398438 C 230.398438 158.398438 229.949219 158.175781 229.800781 157.949219 C 229.726562 157.726562 229.800781 157.273438 230.175781 157.050781 C 231.449219 156.148438 242.25 156.074219 243.449219 157.199219 C 243.898438 157.5 243.898438 158.101562 243.675781 158.550781 C 242.925781 159.675781 236.625 161.550781 235.351562 161.324219 C 234.898438 161.324219 234.601562 161.023438 234.523438 160.800781 C 234.449219 160.574219 234.675781 160.125 234.976562 159.898438 C 236.101562 159.148438 242.324219 158.324219 243.601562 158.925781 C 244.125 159.148438 244.5 159.675781 244.425781 159.976562 C 244.050781 160.949219 234.824219 162.375 233.398438 162 C 233.023438 161.925781 232.800781 161.699219 232.726562 161.476562 C 232.726562 161.25 232.800781 160.875 233.175781 160.574219 C 234.375 159.601562 242.625 157.125 244.050781 157.648438 C 244.425781 157.800781 244.800781 158.324219 244.648438 158.550781 C 244.425781 159.148438 239.175781 159.75 238.199219 159.226562 C 237.75 159 237.449219 158.476562 237.601562 158.023438 C 237.976562 156.976562 245.398438 154.574219 246.824219 154.648438 C 247.273438 154.648438 247.648438 154.800781 247.726562 155.023438 C 247.800781 155.324219 247.726562 155.699219 247.425781 156 C 246.601562 156.824219 242.699219 157.800781 240.824219 158.023438 C 239.476562 158.25 237.75 158.398438 237.375 157.949219 C 237.074219 157.648438 237.148438 156.976562 237.523438 156.601562 C 238.949219 155.175781 253.273438 154.351562 255.226562 155.175781 C 255.75 155.324219 255.976562 155.699219 255.976562 156 C 255.976562 156.226562 255.601562 156.601562 255.226562 156.675781 C 254.699219 156.824219 253.125 156.523438 252.898438 156.148438 C 252.824219 155.925781 253.050781 155.476562 253.273438 155.25 C 253.574219 155.023438 254.023438 155.023438 254.773438 154.949219 C 257.023438 154.574219 265.351562 153.449219 268.726562 153.375 C 270.75 153.375 273.226562 153.375 273.449219 153.824219 C 273.523438 154.050781 273.226562 154.425781 272.699219 154.648438 C 270.898438 155.625 262.875 155.476562 256.273438 155.699219 C 246 156.074219 220.273438 156.824219 217.199219 155.851562 C 216.75 155.699219 216.601562 155.625 216.523438 155.398438 C 216.449219 155.101562 216.449219 154.726562 216.898438 154.425781 C 219.148438 152.851562 251.101562 152.625 252.824219 154.574219 C 253.199219 154.949219 253.050781 155.625 252.675781 155.925781 C 251.851562 156.675781 248.851562 156.375 246 156.523438 C 240.675781 156.75 225.898438 157.800781 223.648438 156.675781 C 223.125 156.375 222.824219 155.925781 222.976562 155.625 C 223.648438 154.425781 246 154.199219 247.425781 155.773438 C 247.726562 156.148438 247.574219 156.824219 247.199219 157.125 C 246.300781 158.023438 241.574219 157.574219 238.875 157.726562 C 236.324219 157.800781 232.5 158.324219 231.449219 157.800781 C 231.074219 157.648438 230.851562 157.425781 230.851562 157.199219 C 230.851562 156.976562 231 156.601562 231.449219 156.375 C 232.726562 155.699219 241.800781 156 242.398438 156.898438 C 242.625 157.199219 242.476562 157.800781 242.101562 158.101562 C 241.050781 158.925781 234.976562 159.675781 233.773438 159.226562 C 233.398438 159.074219 233.101562 158.699219 233.101562 158.476562 C 233.175781 158.175781 233.398438 157.875 233.851562 157.726562 C 235.125 157.125 241.648438 157.351562 243.375 157.726562 C 243.976562 157.875 244.5 158.101562 244.574219 158.398438 C 244.648438 158.625 244.5 159 244.125 159.300781 C 242.851562 160.199219 235.351562 160.648438 232.726562 160.949219 C 231.300781 161.023438 230.101562 161.324219 229.5 161.023438 C 229.199219 160.875 228.898438 160.5 228.898438 160.199219 C 228.976562 159.976562 229.199219 159.75 229.648438 159.523438 C 231.449219 158.851562 243.226562 158.699219 244.875 159.601562 C 245.25 159.824219 245.398438 160.125 245.398438 160.425781 C 245.398438 160.648438 245.175781 160.875 244.875 161.023438 C 243.75 161.550781 239.550781 161.550781 237.226562 161.625 C 235.273438 161.699219 232.574219 162.074219 231.75 161.625 C 231.375 161.476562 231.148438 161.101562 231.148438 160.800781 C 231.226562 160.574219 231.375 160.351562 231.75 160.199219 C 233.25 159.449219 244.351562 159.074219 245.773438 159.824219 C 246.074219 160.050781 246.226562 160.351562 246.148438 160.574219 C 246.148438 160.875 245.851562 161.101562 245.398438 161.25 C 243.824219 162 234.074219 162.601562 232.425781 162.074219 C 231.976562 161.925781 231.675781 161.625 231.675781 161.398438 C 231.675781 161.175781 231.976562 160.726562 232.425781 160.574219 C 233.699219 159.976562 240.675781 159.898438 241.5 160.800781 C 241.800781 161.101562 241.800781 161.773438 241.5 162.074219 C 241.125 162.523438 239.773438 162.449219 238.726562 162.601562 C 237.449219 162.824219 234.898438 163.574219 234.226562 163.125 C 233.851562 162.898438 233.550781 162.074219 233.773438 161.773438 C 234.375 161.101562 240.601562 161.101562 241.351562 161.851562 C 241.648438 162.148438 241.648438 162.898438 241.351562 163.199219 C 240.898438 163.726562 237.976562 163.949219 237.226562 163.648438 C 236.851562 163.5 236.625 163.125 236.625 162.898438 C 236.625 162.675781 236.925781 162.300781 237.226562 162.148438 C 237.824219 161.925781 239.550781 162 239.773438 162.375 C 239.925781 162.601562 239.398438 163.648438 239.25 163.648438 C 239.175781 163.648438 239.023438 162.226562 239.175781 162.148438 C 239.324219 162.148438 239.925781 162.75 239.925781 162.976562 C 239.925781 163.273438 239.324219 163.726562 239.175781 163.648438 C 239.023438 163.574219 238.875 162.523438 239.25 162.148438 C 239.925781 161.550781 244.425781 161.773438 245.175781 162.375 C 245.550781 162.601562 245.625 163.050781 245.550781 163.273438 C 245.476562 163.648438 244.800781 164.023438 244.273438 164.25 C 243.449219 164.699219 241.875 165.375 241.273438 165.226562 C 240.898438 165.074219 240.449219 164.476562 240.523438 164.25 C 240.601562 163.875 242.476562 163.5 242.773438 163.800781 C 243 163.949219 243.074219 164.476562 243 164.773438 C 242.851562 165 242.25 165.300781 241.949219 165.226562 C 241.648438 165.226562 241.199219 164.851562 241.125 164.625 C 241.050781 164.398438 241.199219 164.023438 241.425781 163.875 C 241.875 163.574219 243.824219 163.5 244.199219 163.800781 C 244.425781 164.023438 244.425781 164.476562 244.273438 164.773438 C 244.050781 165.300781 242.773438 166.273438 242.476562 166.125 C 242.175781 166.050781 241.949219 165.074219 242.175781 164.773438 C 242.476562 164.324219 245.175781 164.023438 245.625 164.324219 C 245.851562 164.550781 245.925781 165 245.851562 165.300781 C 245.625 165.898438 244.425781 167.324219 244.125 167.25 C 243.824219 167.175781 243.675781 166.050781 243.75 165.675781 C 243.898438 165.375 244.199219 165.074219 244.5 165.074219 C 244.726562 165.074219 245.25 165.375 245.25 165.675781 C 245.324219 166.050781 244.5 167.476562 244.199219 167.476562 C 243.976562 167.476562 243.601562 167.023438 243.601562 166.726562 C 243.601562 166.273438 244.351562 165.449219 244.800781 165.226562 C 245.175781 165.074219 245.773438 165.148438 245.925781 165.375 C 246.074219 165.523438 245.851562 166.351562 245.851562 166.351562 C 245.851562 166.351562 245.699219 165.226562 245.925781 164.773438 C 246.226562 164.324219 247.5 163.648438 247.875 163.800781 C 248.175781 163.949219 248.324219 164.550781 248.175781 164.925781 C 247.949219 165.675781 246.074219 167.550781 245.25 167.625 C 244.800781 167.625 244.125 167.175781 244.125 166.800781 C 244.125 166.199219 246.675781 164.476562 247.5 164.324219 C 248.023438 164.25 248.625 164.324219 248.699219 164.625 C 248.925781 165.148438 247.273438 167.925781 246.601562 168.074219 C 246.226562 168.074219 245.550781 167.476562 245.550781 167.175781 C 245.550781 166.726562 247.050781 165.75 247.425781 165.824219 C 247.726562 165.976562 248.023438 166.726562 247.949219 167.023438 C 247.800781 167.324219 246.75 167.773438 246.523438 167.625 C 246.300781 167.550781 246.375 166.351562 246.449219 166.351562 C 246.601562 166.273438 247.351562 167.476562 247.273438 167.625 C 247.199219 167.699219 246.300781 167.476562 246.226562 167.25 C 246.074219 167.023438 246.449219 166.273438 246.523438 166.273438 C 246.601562 166.273438 246.824219 167.324219 246.75 167.625 C 246.601562 168 246.074219 168.300781 245.699219 168.449219 C 245.324219 168.675781 244.648438 168.824219 244.351562 168.675781 C 244.125 168.523438 243.898438 168 243.976562 167.625 C 244.199219 166.800781 246.375 164.925781 247.125 164.625 C 247.574219 164.476562 247.949219 164.476562 248.175781 164.625 C 248.324219 164.773438 248.398438 165.226562 248.25 165.601562 C 248.023438 166.425781 246.300781 168.675781 245.625 168.976562 C 245.25 169.199219 244.949219 169.199219 244.726562 169.050781 C 244.5 168.898438 244.351562 168.375 244.5 168.074219 C 244.648438 167.550781 246.675781 166.574219 246.976562 166.800781 C 247.199219 167.023438 246.898438 168.601562 246.601562 168.75 C 246.300781 168.898438 245.398438 168.375 245.398438 168.074219 C 245.324219 167.773438 246.148438 167.023438 246.601562 166.949219 C 246.898438 166.949219 247.351562 167.175781 247.425781 167.398438 C 247.574219 167.851562 246.523438 169.726562 246.148438 169.726562 C 245.925781 169.800781 245.324219 169.050781 245.398438 168.675781 C 245.550781 167.925781 248.25 166.125 249.074219 165.824219 C 249.449219 165.75 249.75 165.675781 249.898438 165.824219 C 250.125 165.976562 250.351562 166.5 250.199219 166.800781 C 249.898438 167.25 247.425781 168.074219 247.125 167.773438 C 246.824219 167.476562 247.425781 166.125 247.800781 165.449219 C 248.25 164.699219 249.226562 163.574219 249.824219 163.5 C 250.199219 163.425781 250.726562 163.726562 250.800781 163.949219 C 250.949219 164.175781 250.800781 164.550781 250.574219 164.773438 C 249.898438 165.523438 246.148438 167.023438 244.875 167.25 C 244.273438 167.398438 243.675781 167.476562 243.523438 167.25 C 243.226562 166.875 243.75 165.449219 244.199219 164.851562 C 244.648438 164.25 245.398438 163.425781 245.925781 163.425781 C 246.300781 163.351562 246.824219 163.648438 246.898438 163.949219 C 247.050781 164.550781 245.476562 167.25 244.949219 167.324219 C 244.648438 167.324219 244.050781 166.648438 244.125 166.199219 C 244.351562 164.851562 251.625 160.125 253.199219 160.050781 C 253.726562 160.050781 254.25 160.351562 254.25 160.648438 C 254.324219 161.101562 252.601562 162.523438 251.550781 163.125 C 250.648438 163.726562 248.851562 164.625 248.398438 164.324219 C 248.101562 164.25 248.023438 163.800781 248.023438 163.425781 C 248.175781 162.375 250.199219 158.550781 250.875 158.476562 C 251.25 158.476562 251.851562 159.148438 251.773438 159.601562 C 251.550781 160.800781 245.476562 165.074219 244.425781 164.773438 C 244.050781 164.699219 243.898438 164.175781 243.898438 163.726562 C 243.976562 162.976562 245.101562 161.324219 245.699219 160.949219 C 246.074219 160.800781 246.523438 160.800781 246.75 160.949219 C 246.898438 161.101562 246.976562 161.550781 246.898438 161.925781 C 246.675781 162.601562 245.175781 164.101562 244.5 164.398438 C 244.125 164.625 243.75 164.699219 243.523438 164.550781 C 243.300781 164.398438 243.074219 164.023438 243.148438 163.648438 C 243.300781 162.75 245.175781 160.351562 246 160.050781 C 246.300781 159.976562 246.75 160.050781 246.976562 160.273438 C 247.125 160.425781 247.050781 160.800781 246.976562 161.101562 C 246.75 161.851562 245.324219 164.175781 244.648438 164.324219 C 244.199219 164.398438 243.449219 163.949219 243.449219 163.648438 C 243.375 163.125 245.25 161.476562 246 161.324219 C 246.375 161.25 246.898438 161.324219 247.050781 161.625 C 247.5 162.300781 246 166.875 245.398438 167.101562 C 245.101562 167.175781 244.648438 166.726562 244.5 166.351562 C 244.351562 165.601562 244.949219 163.273438 245.550781 162.824219 C 245.925781 162.601562 246.898438 162.675781 246.976562 162.898438 C 247.050781 163.199219 245.023438 165.148438 244.5 165.148438 C 244.199219 165.148438 243.976562 164.925781 243.824219 164.550781 C 243.523438 163.800781 243.824219 160.273438 244.5 159.675781 C 244.800781 159.375 245.773438 159.523438 245.851562 159.675781 C 246 159.976562 244.949219 161.476562 244.425781 161.550781 C 244.050781 161.625 243.375 161.25 243.300781 160.875 C 243.148438 160.273438 244.125 158.699219 244.648438 158.324219 C 244.949219 158.023438 245.476562 157.949219 245.625 158.101562 C 245.925781 158.324219 245.625 159.601562 245.25 160.351562 C 244.875 161.25 243.601562 163.050781 242.925781 163.125 C 242.550781 163.199219 242.023438 162.824219 241.875 162.449219 C 241.726562 161.851562 242.773438 159.449219 243.148438 159.375 C 243.375 159.375 243.824219 159.976562 243.75 160.273438 C 243.675781 161.023438 240.976562 162.675781 239.851562 162.898438 C 239.175781 163.050781 238.351562 162.976562 238.050781 162.523438 C 237.601562 161.851562 238.425781 159.449219 238.949219 158.324219 C 239.324219 157.425781 240 156.675781 240.523438 156.148438 C 240.898438 155.699219 241.425781 155.101562 241.800781 155.175781 C 242.101562 155.175781 242.550781 155.625 242.550781 156.074219 C 242.699219 157.273438 240.074219 162.226562 239.25 162.300781 C 238.875 162.375 238.351562 161.773438 238.351562 161.25 C 238.425781 159.824219 245.101562 153.523438 245.851562 153.75 C 246.074219 153.824219 246.148438 154.574219 246 155.023438 C 245.625 155.699219 243.300781 157.273438 242.550781 157.199219 C 242.023438 157.199219 241.648438 156.75 241.5 156.375 C 241.273438 155.925781 241.351562 154.800781 241.648438 154.574219 C 241.875 154.425781 242.773438 154.726562 242.851562 154.949219 C 242.925781 155.175781 242.550781 155.550781 242.175781 156 C 241.273438 157.125 238.199219 160.949219 237 161.25 C 236.476562 161.324219 235.726562 161.023438 235.648438 160.648438 C 235.574219 160.125 238.351562 158.398438 239.699219 157.648438 C 240.976562 156.976562 243 156.074219 243.523438 156.375 C 243.824219 156.523438 243.898438 157.050781 243.824219 157.5 C 243.601562 158.101562 242.476562 159.226562 241.800781 159.601562 C 241.199219 159.976562 240.300781 160.273438 239.925781 160.050781 C 239.476562 159.75 239.476562 158.25 239.550781 157.574219 C 239.625 157.050781 239.925781 156.523438 240.226562 156.375 C 240.449219 156.300781 240.976562 156.375 241.273438 156.75 C 242.023438 157.574219 242.773438 162.675781 242.175781 163.273438 C 241.875 163.648438 241.125 163.574219 240.75 163.273438 C 240.074219 162.675781 240.148438 159.976562 239.925781 158.25 C 239.699219 156.300781 239.023438 152.925781 239.625 152.023438 C 239.851562 151.648438 240.449219 151.425781 240.75 151.574219 C 241.5 152.101562 241.726562 160.050781 241.050781 160.5 C 240.898438 160.648438 240.300781 160.351562 240.226562 160.125 C 240.074219 159.449219 244.5 154.425781 245.398438 154.574219 C 245.851562 154.648438 246.074219 155.625 246.226562 156.375 C 246.449219 157.726562 246.523438 161.476562 245.925781 161.851562 C 245.699219 162.074219 245.023438 161.773438 244.800781 161.398438 C 244.5 160.875 244.800781 159.375 245.023438 158.476562 C 245.25 157.5 245.625 156.074219 246.148438 155.699219 C 246.601562 155.476562 247.425781 155.398438 247.726562 155.773438 C 248.324219 156.523438 246.976562 162.148438 246.148438 162.824219 C 245.773438 163.125 245.101562 163.050781 244.800781 162.824219 C 244.425781 162.449219 244.5 161.25 244.574219 160.351562 C 244.648438 159.148438 245.101562 156.976562 245.625 156.226562 C 245.851562 155.851562 246.148438 155.625 246.449219 155.550781 C 246.675781 155.550781 247.125 155.773438 247.273438 156.148438 C 247.648438 157.050781 246.675781 160.949219 246.074219 162.074219 C 245.851562 162.601562 245.476562 163.050781 245.175781 163.125 C 244.875 163.125 244.425781 162.675781 244.351562 162.300781 C 244.273438 161.625 246 159.300781 246.75 159 C 247.199219 158.851562 247.726562 159.074219 247.949219 159.300781 C 248.25 159.601562 248.324219 160.199219 248.25 160.875 C 248.101562 162.148438 247.050781 165.675781 246.226562 166.273438 C 245.773438 166.5 245.023438 166.425781 244.800781 166.199219 C 244.5 165.824219 244.800781 164.851562 245.101562 164.101562 C 245.625 162.898438 247.5 160.125 248.023438 160.199219 C 248.324219 160.199219 248.625 160.875 248.550781 161.324219 C 248.476562 162.074219 246.824219 163.800781 246.148438 164.324219 C 245.699219 164.625 245.175781 164.925781 244.949219 164.851562 C 244.648438 164.699219 244.425781 163.800781 244.5 163.800781 C 244.574219 163.726562 245.625 164.699219 245.550781 164.851562 C 245.476562 164.851562 244.726562 164.699219 244.574219 164.476562 C 244.5 164.25 244.574219 163.726562 244.726562 163.648438 C 244.875 163.5 245.925781 164.023438 245.851562 164.175781 C 245.851562 164.25 244.949219 164.324219 244.726562 164.175781 C 244.574219 164.023438 244.726562 163.199219 244.726562 163.199219 C 244.800781 163.199219 245.175781 164.023438 244.949219 164.398438 C 244.5 165.300781 241.273438 166.648438 239.851562 166.648438 C 238.726562 166.648438 237.375 165.898438 237 165.375 C 236.851562 165.074219 236.773438 164.625 237 164.324219 C 237.523438 163.726562 243.148438 163.726562 243.824219 164.324219 C 244.050781 164.625 244.050781 165 243.898438 165.375 C 243.523438 166.050781 241.425781 167.699219 240.75 167.851562 C 240.375 167.925781 240.074219 167.851562 239.925781 167.625 C 239.773438 167.398438 239.773438 166.949219 240 166.648438 C 240.449219 165.824219 244.125 164.023438 244.875 164.25 C 245.175781 164.398438 245.398438 164.925781 245.25 165.148438 C 245.023438 165.523438 242.476562 165.449219 241.351562 165.300781 C 240.523438 165.148438 239.398438 165 239.25 164.625 C 239.175781 164.324219 240.074219 163.199219 240.375 163.199219 C 240.675781 163.199219 241.125 163.949219 241.050781 164.101562 C 240.976562 164.324219 240.523438 164.398438 240.074219 164.550781 C 239.25 164.699219 237.074219 164.925781 236.324219 164.699219 C 235.949219 164.550781 235.574219 164.25 235.574219 164.023438 C 235.574219 163.726562 235.800781 163.351562 236.175781 163.199219 C 236.851562 162.824219 240 162.75 240.449219 163.199219 C 240.675781 163.425781 240.601562 163.875 240.375 164.175781 C 240 164.773438 238.050781 165.898438 237.375 165.898438 C 237.074219 165.824219 236.773438 165.523438 236.773438 165.300781 C 236.699219 165.074219 236.851562 164.699219 237.148438 164.398438 C 237.976562 163.875 242.175781 163.425781 242.851562 163.875 C 243.148438 164.101562 243.226562 164.476562 243.074219 164.851562 C 242.925781 165.449219 241.726562 166.351562 241.050781 166.875 C 240.523438 167.324219 240 167.925781 239.550781 167.925781 C 239.25 167.851562 238.648438 167.324219 238.726562 167.175781 C 238.875 166.800781 241.273438 166.273438 241.949219 166.574219 C 242.398438 166.800781 242.699219 167.625 242.625 168 C 242.625 168.226562 242.25 168.523438 242.023438 168.523438 C 241.726562 168.523438 241.273438 168.226562 241.199219 167.925781 C 241.125 167.550781 241.5 166.648438 241.800781 166.425781 C 242.101562 166.273438 242.625 166.351562 242.773438 166.5 C 243 166.726562 242.925781 167.476562 242.699219 167.625 C 242.550781 167.773438 241.875 167.699219 241.800781 167.550781 C 241.800781 167.398438 243.523438 166.273438 243.976562 166.425781 C 244.199219 166.5 244.425781 167.023438 244.351562 167.324219 C 244.273438 167.773438 243.300781 168.824219 242.925781 168.75 C 242.550781 168.75 242.175781 168.226562 242.175781 167.773438 C 242.101562 166.875 244.125 164.324219 245.175781 163.648438 C 245.925781 163.273438 247.050781 163.125 247.5 163.351562 C 247.800781 163.574219 247.875 164.023438 247.800781 164.550781 C 247.726562 165.300781 247.125 166.726562 246.300781 167.550781 C 245.398438 168.449219 243 169.949219 242.398438 169.648438 C 242.023438 169.5 241.800781 168.824219 242.023438 168.300781 C 242.550781 166.875 251.25 162.375 251.25 162.375 C 251.25 162.375 247.5 165.375 247.050781 165.148438 C 246.824219 165.074219 246.824219 164.550781 246.976562 164.324219 C 247.273438 163.800781 249.375 162.824219 249.976562 162.976562 C 250.425781 163.125 250.875 164.023438 250.726562 164.25 C 250.5 164.699219 246.675781 164.851562 246.449219 164.324219 C 246.226562 163.875 247.800781 161.851562 248.101562 161.925781 C 248.398438 162 248.773438 162.898438 248.550781 163.273438 C 247.875 164.324219 237.375 164.699219 236.398438 163.875 C 236.101562 163.648438 236.101562 163.199219 236.25 162.898438 C 236.398438 162.601562 236.925781 162.375 237.523438 162.148438 C 238.574219 161.773438 242.398438 161.324219 242.398438 161.023438 C 242.398438 160.875 241.199219 160.949219 240.898438 160.574219 C 240.523438 160.273438 240.449219 159.523438 240.300781 158.925781 C 240.148438 158.25 239.773438 157.199219 240 156.675781 C 240.148438 156.375 240.675781 155.925781 240.898438 156.074219 C 241.273438 156.226562 241.5 158.773438 241.199219 159.675781 C 241.050781 160.199219 240.523438 160.800781 240.148438 160.949219 C 239.851562 161.023438 239.476562 160.875 239.25 160.574219 C 238.726562 159.824219 238.199219 156.375 238.648438 155.550781 C 238.800781 155.175781 239.324219 154.800781 239.550781 154.949219 C 240.074219 155.175781 240.523438 158.925781 240 159.523438 C 239.773438 159.898438 238.800781 159.898438 238.648438 159.675781 C 238.574219 159.523438 238.949219 158.625 239.175781 158.550781 C 239.398438 158.550781 240.074219 159.226562 240.074219 159.449219 C 240 159.675781 239.625 160.050781 239.324219 160.050781 C 239.101562 160.050781 238.726562 159.675781 238.574219 159.300781 C 238.273438 158.550781 238.273438 156.226562 238.648438 155.550781 C 238.800781 155.175781 239.175781 154.800781 239.398438 154.949219 C 239.925781 155.101562 241.050781 159.898438 240.601562 160.574219 C 240.375 160.875 239.550781 160.949219 239.324219 160.726562 C 238.949219 160.199219 240.300781 156 240.75 156 C 241.125 156 241.351562 158.699219 241.949219 159.523438 C 242.398438 160.199219 243.449219 160.351562 243.601562 160.875 C 243.75 161.324219 243.523438 161.925781 243.074219 162.375 C 242.101562 163.199219 236.925781 164.398438 236.398438 163.875 C 236.101562 163.648438 236.25 162.898438 236.625 162.601562 C 237.75 161.625 244.648438 161.773438 246.75 161.925781 C 247.726562 162 248.699219 162.074219 248.773438 162.449219 C 248.925781 162.824219 247.648438 164.101562 247.574219 164.023438 C 247.5 164.023438 247.574219 163.351562 247.800781 163.199219 C 248.101562 162.898438 248.773438 162.898438 249.300781 162.898438 C 249.976562 162.976562 251.398438 163.273438 251.476562 163.574219 C 251.476562 164.023438 247.425781 165.523438 246.523438 165.449219 C 246.148438 165.449219 245.851562 165.375 245.773438 165.148438 C 245.699219 164.851562 246 164.25 246.375 163.800781 C 247.125 162.898438 249.824219 161.175781 250.800781 161.175781 C 251.25 161.175781 251.699219 161.476562 251.773438 161.773438 C 251.925781 162.226562 251.625 163.125 251.023438 163.875 C 249.75 165.523438 243.75 169.949219 242.550781 169.648438 C 242.101562 169.574219 241.726562 168.824219 241.875 168.449219 C 242.023438 167.851562 244.273438 167.476562 245.023438 166.800781 C 245.699219 166.125 246.375 164.625 246.375 164.550781 C 246.375 164.550781 244.949219 167.625 244.125 168.148438 C 243.523438 168.523438 242.324219 168.601562 242.175781 168.300781 C 242.023438 168.074219 243 166.5 243.449219 166.351562 C 243.75 166.273438 244.273438 166.648438 244.351562 166.949219 C 244.5 167.25 244.125 167.773438 243.824219 168.074219 C 243.300781 168.523438 241.949219 168.976562 241.5 168.75 C 241.199219 168.675781 240.898438 168.148438 240.976562 167.773438 C 241.050781 167.324219 242.476562 166.273438 242.699219 166.425781 C 242.851562 166.5 242.25 168.523438 242.023438 168.523438 C 241.800781 168.601562 241.199219 167.398438 241.199219 167.398438 C 241.273438 167.398438 241.800781 167.925781 241.726562 168.074219 C 241.648438 168.226562 239.925781 168.148438 239.398438 167.925781 C 239.023438 167.699219 238.726562 167.324219 238.800781 166.949219 C 238.875 166.199219 242.476562 163.648438 242.851562 163.875 C 243.074219 164.023438 243 164.851562 242.699219 165.226562 C 242.175781 165.75 239.851562 165.898438 238.800781 165.898438 C 238.125 165.976562 237.375 166.050781 237.074219 165.75 C 236.851562 165.523438 236.625 165.148438 236.773438 164.773438 C 237.074219 164.175781 239.773438 162.75 240.148438 162.976562 C 240.449219 163.125 240.449219 164.101562 240.074219 164.398438 C 239.550781 164.925781 236.023438 164.851562 235.726562 164.324219 C 235.5 164.101562 235.800781 163.425781 236.175781 163.199219 C 236.699219 162.824219 238.648438 162.976562 239.550781 163.199219 C 240.148438 163.273438 240.976562 163.5 241.050781 163.800781 C 241.125 164.101562 240.148438 165.074219 239.851562 165.074219 C 239.550781 165.074219 239.175781 164.550781 239.25 164.25 C 239.25 164.023438 239.550781 163.726562 239.925781 163.574219 C 240.824219 163.273438 243.824219 163.5 244.875 163.800781 C 245.550781 164.023438 246.226562 164.25 246.226562 164.625 C 246.226562 165.375 241.800781 167.773438 240.75 167.851562 C 240.375 167.925781 240.074219 167.851562 239.925781 167.625 C 239.773438 167.398438 239.773438 166.949219 240 166.648438 C 240.375 165.898438 243.375 164.101562 243.824219 164.324219 C 243.976562 164.476562 243.976562 165.226562 243.75 165.449219 C 243.375 165.976562 242.023438 166.199219 241.050781 166.273438 C 239.925781 166.273438 237.75 165.976562 237.148438 165.449219 C 236.925781 165.148438 236.773438 164.550781 237 164.324219 C 237.300781 164.101562 238.875 165.226562 240 165.148438 C 241.425781 165 243.898438 162.601562 244.800781 162.976562 C 245.324219 163.199219 245.625 164.773438 245.550781 164.851562 C 245.476562 164.851562 244.5 164.25 244.5 163.800781 C 244.5 162.898438 247.425781 160.125 248.023438 160.199219 C 248.324219 160.199219 248.625 160.726562 248.625 161.175781 C 248.699219 162.226562 246.824219 165.824219 246 166.425781 C 245.625 166.648438 245.175781 166.574219 245.023438 166.5 C 244.800781 166.351562 244.726562 166.050781 244.726562 165.675781 C 244.800781 164.699219 246.523438 162.148438 246.75 160.949219 C 246.824219 160.199219 246.375 159.375 246.675781 159.148438 C 246.898438 158.925781 247.800781 159.074219 247.949219 159.300781 C 248.175781 159.824219 246.449219 162.601562 245.625 162.898438 C 245.25 162.976562 244.574219 162.75 244.351562 162.300781 C 243.898438 161.398438 245.175781 156.824219 245.851562 156 C 246.148438 155.625 246.601562 155.476562 246.824219 155.625 C 247.351562 156 246.824219 162 246.148438 162.824219 C 245.851562 163.199219 245.398438 163.273438 245.175781 163.199219 C 244.949219 163.125 244.800781 162.75 244.726562 162.300781 C 244.648438 161.101562 245.398438 156.300781 246.300781 155.699219 C 246.675781 155.398438 247.5 155.398438 247.726562 155.773438 C 248.175781 156.449219 246.75 161.550781 245.925781 161.851562 C 245.625 162 245.023438 161.699219 244.800781 161.25 C 244.199219 160.273438 244.125 155.625 244.648438 154.875 C 244.800781 154.648438 245.023438 154.5 245.25 154.574219 C 245.476562 154.648438 245.925781 155.175781 245.851562 155.699219 C 245.699219 156.976562 241.726562 161.550781 240.675781 161.550781 C 240.148438 161.550781 239.851562 161.101562 239.550781 160.5 C 238.949219 159.074219 238.875 153.375 239.550781 152.25 C 239.851562 151.726562 240.375 151.425781 240.75 151.574219 C 241.726562 152.101562 243.074219 162.375 242.175781 163.273438 C 241.875 163.648438 241.125 163.574219 240.75 163.273438 C 240 162.523438 239.324219 157.574219 239.851562 156.824219 C 240.148438 156.449219 241.050781 156.449219 241.273438 156.75 C 241.574219 157.050781 241.351562 159.074219 241.050781 159.226562 C 240.898438 159.375 240.300781 159.148438 240.226562 159 C 240.148438 158.550781 243.148438 156.148438 243.523438 156.375 C 243.75 156.449219 243.824219 157.273438 243.523438 157.726562 C 242.851562 158.851562 237.898438 161.476562 236.625 161.398438 C 236.175781 161.398438 235.648438 161.101562 235.648438 160.648438 C 235.574219 159.675781 240.449219 155.101562 241.648438 154.574219 C 242.101562 154.425781 242.476562 154.5 242.625 154.648438 C 242.851562 154.800781 242.476562 155.550781 242.625 155.625 C 243 155.851562 245.324219 153.601562 245.851562 153.75 C 246.074219 153.898438 246.226562 154.351562 246.074219 154.875 C 245.773438 156.300781 240.898438 161.476562 239.550781 162.074219 C 239.175781 162.300781 238.726562 162.375 238.574219 162.226562 C 238.351562 161.925781 238.5 160.949219 238.726562 160.125 C 239.175781 158.773438 241.125 155.175781 241.800781 155.175781 C 242.101562 155.175781 242.476562 155.773438 242.476562 156.300781 C 242.476562 157.425781 238.726562 161.25 239.023438 161.625 C 239.324219 161.925781 242.699219 159 243.300781 159.449219 C 243.824219 159.75 243.300781 162.976562 242.925781 163.125 C 242.699219 163.199219 242.023438 162.601562 241.949219 162.148438 C 241.875 161.25 243.976562 158.550781 244.800781 158.175781 C 245.175781 157.949219 245.625 157.949219 245.773438 158.175781 C 246.074219 158.550781 245.101562 161.25 244.574219 161.476562 C 244.199219 161.625 243.300781 161.101562 243.300781 160.875 C 243.226562 160.5 245.101562 159.074219 245.550781 159.300781 C 245.925781 159.523438 245.773438 161.550781 245.625 162.449219 C 245.550781 163.125 245.324219 164.175781 245.023438 164.25 C 244.875 164.25 244.425781 163.949219 244.425781 163.726562 C 244.425781 163.351562 245.625 162.375 246.074219 162.375 C 246.523438 162.375 246.976562 162.898438 247.125 163.425781 C 247.351562 164.023438 247.125 165.375 246.675781 166.050781 C 246.375 166.574219 245.398438 167.175781 245.023438 167.023438 C 244.726562 166.875 244.648438 165.898438 244.648438 165.226562 C 244.726562 164.175781 245.25 161.851562 245.851562 161.476562 C 246.226562 161.25 246.976562 161.398438 247.050781 161.625 C 247.199219 162 245.175781 164.324219 244.5 164.398438 C 244.050781 164.476562 243.523438 164.023438 243.449219 163.648438 C 243.300781 162.898438 245.25 160.199219 246 160.050781 C 246.375 160.050781 246.976562 160.574219 247.050781 160.949219 C 247.125 161.625 245.773438 162.976562 245.175781 163.574219 C 244.726562 164.101562 244.199219 164.699219 243.824219 164.625 C 243.523438 164.625 243.148438 164.023438 243.148438 163.648438 C 243.226562 162.898438 245.175781 161.101562 245.851562 160.875 C 246.226562 160.726562 246.523438 160.800781 246.75 160.949219 C 246.898438 161.101562 246.976562 161.550781 246.898438 161.925781 C 246.675781 162.675781 244.875 164.925781 244.425781 164.773438 C 244.199219 164.773438 243.976562 163.949219 244.199219 163.351562 C 244.648438 162.074219 249.675781 158.625 250.875 158.476562 C 251.324219 158.476562 251.625 158.699219 251.773438 158.925781 C 251.925781 159.148438 251.851562 159.523438 251.699219 159.976562 C 251.398438 161.023438 249.75 164.023438 249.074219 164.398438 C 248.851562 164.550781 248.550781 164.476562 248.398438 164.324219 C 248.175781 164.175781 248.023438 163.574219 248.25 163.125 C 248.773438 162.226562 252.148438 160.125 253.199219 160.050781 C 253.648438 160.050781 254.25 160.273438 254.25 160.648438 C 254.324219 161.625 246.449219 167.324219 244.949219 167.324219 C 244.425781 167.25 244.050781 166.875 243.976562 166.5 C 243.898438 165.898438 245.023438 163.949219 245.625 163.574219 C 245.925781 163.425781 246.449219 163.351562 246.601562 163.5 C 246.824219 163.648438 246.976562 164.175781 246.824219 164.476562 C 246.601562 165 244.273438 165.824219 244.351562 165.898438 C 244.351562 165.976562 248.925781 163.273438 249.976562 163.425781 C 250.425781 163.5 250.800781 163.800781 250.875 164.175781 C 250.949219 164.925781 248.625 167.625 247.800781 167.851562 C 247.425781 167.925781 246.976562 167.699219 246.824219 167.476562 C 246.75 167.324219 246.75 166.875 246.898438 166.648438 C 247.273438 166.199219 249 165.523438 249.601562 165.75 C 249.898438 165.824219 250.273438 166.273438 250.199219 166.648438 C 250.125 167.398438 246.976562 169.800781 246.148438 169.726562 C 245.773438 169.726562 245.398438 169.351562 245.324219 169.050781 C 245.25 168.523438 245.851562 167.324219 246.226562 167.101562 C 246.601562 166.949219 247.351562 167.175781 247.425781 167.398438 C 247.574219 167.699219 246.675781 168.898438 246.300781 168.976562 C 245.925781 168.976562 245.398438 168.449219 245.398438 168.074219 C 245.324219 167.699219 245.699219 166.949219 246 166.800781 C 246.226562 166.648438 246.75 166.648438 246.976562 166.800781 C 247.125 167.023438 247.199219 167.476562 247.050781 167.851562 C 246.824219 168.300781 245.925781 169.125 245.398438 169.125 C 245.023438 169.050781 244.5 168.523438 244.5 168.074219 C 244.425781 167.25 246.375 165 247.125 164.625 C 247.5 164.476562 247.949219 164.476562 248.175781 164.625 C 248.324219 164.773438 248.398438 165.226562 248.25 165.601562 C 248.023438 166.425781 245.625 168.75 244.875 168.675781 C 244.5 168.675781 243.976562 167.925781 243.976562 167.625 C 244.125 167.101562 246.074219 166.050781 246.675781 166.199219 C 247.050781 166.351562 247.425781 167.476562 247.273438 167.625 C 247.125 167.699219 246.300781 167.476562 246.226562 167.25 C 246.074219 167.023438 246.375 166.273438 246.523438 166.273438 C 246.675781 166.273438 247.273438 167.550781 247.199219 167.625 C 247.125 167.699219 246.074219 167.175781 246.074219 166.949219 C 246.074219 166.648438 247.125 165.824219 247.425781 165.824219 C 247.726562 165.898438 248.023438 166.5 248.023438 166.800781 C 247.949219 167.25 247.050781 167.925781 246.601562 168.074219 C 246.375 168.148438 245.925781 168.148438 245.773438 168 C 245.625 167.773438 245.550781 167.324219 245.625 166.949219 C 245.851562 166.273438 247.125 164.625 247.726562 164.398438 C 248.101562 164.324219 248.550781 164.476562 248.699219 164.625 C 248.851562 164.851562 248.773438 165.300781 248.550781 165.675781 C 248.175781 166.273438 245.925781 167.773438 245.101562 167.699219 C 244.648438 167.625 244.125 167.175781 244.125 166.800781 C 244.125 166.125 247.351562 163.648438 247.875 163.800781 C 248.175781 163.949219 248.324219 164.550781 248.175781 164.925781 C 248.023438 165.523438 246.449219 166.574219 245.773438 166.726562 C 245.398438 166.800781 244.875 166.726562 244.726562 166.5 C 244.5 166.273438 244.574219 165.375 244.800781 165.226562 C 245.023438 165.148438 246 165.601562 246.074219 165.898438 C 246.148438 166.273438 245.023438 167.398438 244.5 167.476562 C 244.199219 167.550781 243.75 167.175781 243.601562 166.875 C 243.449219 166.5 243.75 165.523438 243.976562 165.300781 C 244.199219 165.074219 244.648438 165 244.800781 165.074219 C 245.023438 165.226562 245.324219 165.675781 245.25 165.976562 C 245.175781 166.5 243.898438 167.773438 243.375 167.851562 C 243 167.851562 242.476562 167.476562 242.398438 167.175781 C 242.398438 166.875 242.773438 166.5 243.074219 166.125 C 243.523438 165.523438 244.425781 164.398438 244.949219 164.25 C 245.25 164.175781 245.625 164.25 245.773438 164.476562 C 245.925781 164.699219 245.851562 165.300781 245.550781 165.601562 C 245.101562 166.050781 243 166.5 242.476562 166.125 C 242.101562 165.976562 241.875 165.300781 242.023438 164.925781 C 242.175781 164.398438 243.976562 163.648438 244.199219 163.800781 C 244.351562 163.949219 244.125 164.851562 243.75 165.074219 C 243.300781 165.375 241.574219 165.300781 241.273438 165 C 241.050781 164.773438 241.125 164.175781 241.273438 163.949219 C 241.5 163.726562 242.175781 163.574219 242.476562 163.648438 C 242.699219 163.648438 243.074219 164.023438 243.074219 164.25 C 243.074219 164.476562 242.851562 164.925781 242.550781 165.074219 C 242.175781 165.300781 241.273438 165.375 240.898438 165.148438 C 240.675781 165 240.375 164.550781 240.523438 164.25 C 240.75 163.574219 244.726562 162 245.175781 162.375 C 245.476562 162.523438 245.398438 163.425781 245.023438 163.726562 C 244.351562 164.398438 239.925781 164.324219 239.25 163.648438 C 238.875 163.351562 239.023438 162.226562 239.175781 162.148438 C 239.324219 162.148438 239.925781 162.75 239.925781 162.976562 C 239.925781 163.273438 239.324219 163.726562 239.175781 163.648438 C 239.023438 163.574219 239.175781 162.148438 239.25 162.148438 C 239.398438 162.148438 239.925781 163.199219 239.773438 163.5 C 239.550781 163.875 237.75 163.875 237.226562 163.648438 C 236.925781 163.5 236.625 163.125 236.625 162.898438 C 236.550781 162.675781 236.773438 162.375 237.074219 162.226562 C 237.75 161.773438 240.898438 161.398438 241.351562 161.851562 C 241.648438 162.148438 241.574219 162.898438 241.199219 163.273438 C 240.523438 163.875 236.851562 163.351562 235.5 163.273438 C 234.75 163.199219 233.925781 163.199219 233.699219 162.898438 C 233.550781 162.675781 233.550781 162.074219 233.773438 161.773438 C 234.601562 160.949219 240.601562 160.273438 241.5 160.800781 C 241.800781 160.949219 241.949219 161.324219 241.875 161.550781 C 241.875 161.773438 241.574219 162 241.125 162.148438 C 239.851562 162.675781 233.699219 162.523438 232.425781 162.074219 C 231.976562 161.925781 231.675781 161.625 231.675781 161.398438 C 231.675781 161.175781 231.898438 160.800781 232.425781 160.574219 C 234.074219 159.75 244.800781 158.851562 245.773438 159.824219 C 246.074219 160.199219 246 160.875 245.625 161.25 C 244.648438 162.148438 239.25 161.625 236.699219 161.699219 C 234.824219 161.699219 232.574219 162 231.75 161.625 C 231.449219 161.476562 231.226562 161.25 231.148438 161.023438 C 231.148438 160.726562 231.375 160.425781 231.75 160.199219 C 233.25 159.375 243.375 158.851562 244.875 159.601562 C 245.25 159.824219 245.476562 160.125 245.398438 160.425781 C 245.398438 160.648438 245.101562 160.875 244.648438 161.101562 C 242.851562 161.773438 231.523438 161.851562 229.726562 161.023438 C 229.199219 160.875 228.898438 160.5 228.898438 160.199219 C 228.898438 159.976562 229.199219 159.75 229.648438 159.523438 C 231.375 158.773438 242.925781 157.050781 243.675781 157.949219 C 243.976562 158.25 243.75 159 243.375 159.226562 C 242.175781 160.050781 233.699219 159.601562 233.175781 158.773438 C 233.023438 158.550781 233.25 158.023438 233.625 157.726562 C 234.675781 156.976562 241.125 156.148438 242.175781 156.675781 C 242.476562 156.898438 242.625 157.351562 242.550781 157.574219 C 242.476562 157.800781 242.25 158.023438 241.875 158.101562 C 240.523438 158.625 233.023438 158.398438 231.601562 157.875 C 231.148438 157.648438 230.925781 157.425781 230.851562 157.199219 C 230.851562 156.976562 231 156.601562 231.449219 156.375 C 233.101562 155.476562 245.925781 154.800781 247.425781 155.773438 C 247.726562 156 247.800781 156.449219 247.726562 156.675781 C 247.648438 156.898438 247.5 157.050781 247.050781 157.199219 C 244.726562 157.875 225.976562 157.875 223.648438 156.675781 C 223.125 156.375 222.824219 155.925781 222.976562 155.625 C 223.726562 154.199219 250.726562 153.300781 252.824219 154.574219 C 253.199219 154.800781 253.273438 155.101562 253.199219 155.324219 C 253.199219 155.550781 252.976562 155.773438 252.523438 156 C 249.523438 157.125 220.199219 156.976562 217.199219 155.851562 C 216.75 155.699219 216.523438 155.476562 216.449219 155.175781 C 216.449219 154.949219 216.523438 154.648438 216.898438 154.425781 C 219.898438 152.550781 271.949219 151.273438 273.300781 153.449219 C 273.523438 153.824219 273.148438 154.351562 272.625 154.726562 C 270.675781 156 255.675781 157.425781 253.648438 156.675781 C 253.125 156.449219 252.898438 156.074219 252.898438 155.851562 C 252.898438 155.550781 253.273438 155.25 253.648438 155.175781 C 254.101562 155.023438 255.523438 155.023438 255.75 155.324219 C 255.898438 155.625 255.824219 156.300781 255.449219 156.601562 C 253.949219 157.949219 241.425781 158.101562 238.800781 158.023438 C 237.976562 158.023438 237.449219 158.175781 237.226562 157.875 C 237 157.648438 237.074219 156.898438 237.375 156.675781 C 237.898438 156.148438 239.925781 156.824219 241.050781 156.523438 C 242.023438 156.300781 242.699219 155.550781 243.75 155.25 C 244.800781 154.875 246.675781 154.273438 247.199219 154.648438 C 247.5 154.875 247.648438 155.550781 247.425781 156 C 246.824219 157.050781 241.949219 158.25 240.226562 158.773438 C 239.398438 159 238.726562 159.375 238.199219 159.226562 C 237.898438 159.148438 237.449219 158.773438 237.449219 158.550781 C 237.449219 158.25 238.125 157.800781 238.800781 157.5 C 240 157.125 243.226562 156.898438 244.425781 157.199219 C 245.023438 157.351562 245.625 157.648438 245.699219 157.949219 C 245.699219 158.324219 245.101562 158.699219 244.425781 159.074219 C 242.625 160.050781 234.824219 162.449219 233.398438 162 C 233.023438 161.925781 232.726562 161.550781 232.726562 161.324219 C 232.726562 161.101562 232.875 160.800781 233.175781 160.574219 C 233.925781 160.050781 236.625 159.675781 238.273438 159.375 C 239.773438 159.148438 241.574219 158.773438 242.625 158.773438 C 243.226562 158.773438 243.824219 158.773438 244.125 159 C 244.351562 159.226562 244.574219 159.675781 244.425781 159.976562 C 243.898438 160.800781 238.125 161.550781 236.398438 161.476562 C 235.5 161.398438 234.675781 161.101562 234.523438 160.800781 C 234.449219 160.574219 234.675781 160.199219 234.976562 159.898438 C 236.023438 159 242.324219 156.824219 243.449219 157.199219 C 243.824219 157.273438 244.050781 157.726562 244.050781 158.023438 C 243.976562 158.25 243.75 158.476562 243.300781 158.625 C 241.648438 159.226562 230.398438 159 229.800781 157.949219 C 229.648438 157.648438 230.101562 157.199219 230.476562 156.75 C 231.074219 156.148438 232.726562 155.550781 233.699219 155.023438 C 234.675781 154.574219 235.800781 153.675781 236.398438 153.75 C 236.773438 153.824219 237.148438 154.125 237.148438 154.425781 C 237.226562 154.648438 236.925781 155.023438 236.476562 155.25 C 235.425781 155.773438 230.699219 156.074219 229.800781 155.398438 C 229.351562 155.101562 229.125 154.5 229.351562 154.050781 C 230.023438 152.773438 239.101562 150.449219 240.75 150.601562 C 241.199219 150.675781 241.5 150.898438 241.574219 151.125 C 241.648438 151.425781 241.425781 151.800781 241.050781 152.175781 C 239.925781 153.226562 233.476562 155.925781 231.601562 156.226562 C 230.851562 156.300781 230.023438 156.226562 229.949219 156 C 229.800781 155.773438 230.101562 155.25 230.550781 154.949219 C 232.273438 153.898438 244.648438 152.625 246.226562 153.675781 C 246.75 153.976562 246.898438 154.574219 246.75 154.949219 C 246.449219 155.773438 243.449219 156.675781 242.101562 157.199219 C 241.050781 157.574219 240.148438 158.101562 239.398438 158.023438 C 238.726562 158.023438 237.523438 157.648438 237.523438 157.351562 C 237.523438 156.898438 240.898438 155.550781 241.726562 155.625 C 242.175781 155.625 242.550781 155.851562 242.625 156.074219 C 242.699219 156.375 242.550781 156.75 242.175781 157.050781 C 241.425781 157.574219 237.675781 158.101562 236.773438 157.726562 C 236.476562 157.574219 236.25 157.125 236.25 156.898438 C 236.324219 156.601562 236.699219 156.300781 237.226562 156.074219 C 238.125 155.625 240.898438 155.101562 241.648438 155.398438 C 242.023438 155.550781 242.175781 155.851562 242.25 156.074219 C 242.25 156.300781 241.949219 156.675781 241.648438 156.898438 C 241.050781 157.199219 239.175781 157.351562 238.726562 156.976562 C 238.351562 156.75 238.199219 156 238.5 155.699219 C 238.949219 154.949219 242.023438 155.023438 244.125 154.800781 C 246.898438 154.574219 252.226562 154.050781 253.5 154.425781 C 253.949219 154.574219 254.175781 154.726562 254.25 154.875 C 254.324219 155.175781 254.25 155.550781 253.875 155.851562 C 252.601562 157.050781 241.800781 159.898438 240.074219 159.449219 C 239.625 159.375 239.398438 159.074219 239.324219 158.773438 C 239.324219 158.550781 239.550781 158.175781 239.925781 157.949219 C 240.824219 157.5 245.023438 157.425781 245.773438 158.023438 C 246.148438 158.324219 246.226562 159 246 159.300781 C 245.476562 160.125 241.949219 160.648438 240.300781 160.800781 C 239.023438 160.875 237.074219 161.023438 236.773438 160.351562 C 236.398438 159.375 239.925781 156.300781 240.523438 154.5 C 240.976562 153.226562 240.523438 151.5 240.898438 150.976562 C 241.125 150.675781 241.425781 150.523438 241.648438 150.523438 C 241.949219 150.601562 242.25 151.050781 242.324219 151.5 C 242.398438 152.324219 241.425781 154.574219 240.824219 155.324219 C 240.523438 155.699219 240.074219 156.074219 239.773438 156.074219 C 239.550781 156.074219 239.25 155.851562 239.023438 155.550781 C 238.800781 155.101562 238.726562 153.675781 238.949219 153.300781 C 239.175781 153 239.625 152.773438 240.074219 152.925781 C 241.199219 153.300781 245.324219 158.625 245.25 159.898438 C 245.25 160.351562 244.726562 160.800781 244.351562 160.800781 C 243.898438 160.800781 242.925781 159.523438 242.773438 159 C 242.625 158.625 242.699219 158.023438 242.925781 157.875 C 243.148438 157.726562 243.898438 158.023438 243.898438 158.023438 " clip-rule="nonzero"/></clipPath><clipPath id="7de10da56b"><path d="M 221.496094 103.019531 L 256.746094 103.019531 L 256.746094 166.019531 L 221.496094 166.019531 Z M 221.496094 103.019531 " clip-rule="nonzero"/></clipPath></defs><rect x="-37.5" width="450" fill="#ffffff" y="-37.499999" height="449.999989" fill-opacity="1"/><rect x="-37.5" width="450" fill="#ffffff" y="-37.499999" height="449.999989" fill-opacity="1"/><g fill="#ff5055" fill-opacity="0.302"><g transform="translate(65.23704, 202.510316)"><g><path d="M 7.53125 -8.4375 C 11.707031 -7.550781 17.046875 -6.785156 23.546875 -6.140625 L 20.96875 2.234375 C 15.457031 1.742188 11.507812 1.28125 9.125 0.84375 C 6.738281 0.40625 4.863281 0.046875 3.5 -0.234375 L -3.734375 -6.8125 C 1.160156 -17.007812 8.367188 -28.570312 17.890625 -41.5 L 24.09375 -35.234375 C 18.832031 -28.003906 13.3125 -19.070312 7.53125 -8.4375 Z M 7.53125 -8.4375 "/></g></g></g><g fill="#ff5055" fill-opacity="0.302"><g transform="translate(95.951106, 202.510316)"><g><path d="M 21.75 -6.8125 C 17.894531 -2.351562 12.8125 0.457031 6.5 1.625 L -2.046875 -5.546875 C -2.046875 -9.398438 -1.285156 -13.210938 0.234375 -16.984375 C 2.160156 -21.722656 5.335938 -25.554688 9.765625 -28.484375 C 12.804688 -30.535156 16.117188 -31.800781 19.703125 -32.28125 L 29.28125 -24.09375 C 28.59375 -19.757812 27.425781 -15.984375 25.78125 -12.765625 C 28.664062 -12.929688 31.9375 -13.332031 35.59375 -13.96875 L 36.921875 -7.890625 C 31.703125 -5.722656 27.609375 -4.257812 24.640625 -3.5 Z M 6.015625 -6.5625 C 10.597656 -7.601562 14.414062 -10.4375 17.46875 -15.0625 C 18.75 -17.03125 19.671875 -18.914062 20.234375 -20.71875 C 20.796875 -22.53125 21.097656 -23.976562 21.140625 -25.0625 C 17.890625 -24.613281 14.796875 -22.882812 11.859375 -19.875 C 8.210938 -16.144531 6.265625 -11.707031 6.015625 -6.5625 Z M 6.015625 -6.5625 "/></g></g></g><g fill="#ff5055" fill-opacity="0.302"><g transform="translate(131.242168, 202.510316)"><g><path d="M 6.625 -6.203125 C 16.46875 -7.484375 25.019531 -10.070312 32.28125 -13.96875 L 33.609375 -7.890625 C 27.421875 -3.992188 20.554688 -1.160156 13.015625 0.609375 C 10.484375 1.171875 7.992188 1.507812 5.546875 1.625 L -1.921875 -5.296875 C -1.921875 -8.148438 -1.742188 -10.359375 -1.390625 -11.921875 C 0.179688 -18.546875 4.019531 -23.890625 10.125 -27.953125 C 12.851562 -29.753906 15.625 -31.097656 18.4375 -31.984375 L 28.0625 -24.8125 C 27.863281 -23.894531 27.300781 -22.429688 26.375 -20.421875 C 24.851562 -17.046875 23.648438 -14.738281 22.765625 -13.5 L 15.171875 -18.3125 C 17.347656 -21.039062 18.71875 -23.328125 19.28125 -25.171875 C 15.425781 -23.523438 12.289062 -20.878906 9.875 -17.234375 C 7.707031 -13.929688 6.625 -10.253906 6.625 -6.203125 Z M 6.625 -6.203125 "/></g></g></g><g fill="#ff5055" fill-opacity="0.302"><g transform="translate(163.220933, 202.510316)"><g><path d="M 16.390625 -3.796875 C 13.210938 -1.304688 9.554688 0.5 5.421875 1.625 L -2.046875 -5.296875 C -2.046875 -8.472656 -1.5625 -11.585938 -0.59375 -14.640625 C 0.363281 -17.691406 1.785156 -20.441406 3.671875 -22.890625 C 5.554688 -25.335938 7.894531 -27.375 10.6875 -29 C 13.476562 -30.625 16.703125 -31.597656 20.359375 -31.921875 L 24.328125 -25.84375 C 24.816406 -26.601562 25.84375 -27.925781 27.40625 -29.8125 L 33.3125 -24.75 C 29.332031 -19.570312 26.039062 -14.03125 23.4375 -8.125 L 23.25 -8.015625 C 25.582031 -8.617188 28.3125 -9.648438 31.4375 -11.109375 C 34.570312 -12.578125 36.5625 -13.53125 37.40625 -13.96875 L 38.734375 -7.890625 C 36.359375 -6.160156 32.421875 -3.929688 26.921875 -1.203125 C 24.753906 -0.117188 22.785156 0.742188 21.015625 1.390625 Z M 6.390625 -7.046875 C 10.679688 -8.210938 14.59375 -11.0625 18.125 -15.59375 C 19.175781 -17.882812 19.960938 -20.738281 20.484375 -24.15625 C 16.347656 -23.75 12.953125 -21.921875 10.296875 -18.671875 C 7.691406 -15.460938 6.390625 -11.585938 6.390625 -7.046875 Z M 6.390625 -7.046875 "/></g></g></g><g fill="#ff5055" fill-opacity="0.302"><g transform="translate(200.318713, 202.510316)"><g><path d="M 15 -26.625 C 18.726562 -27.019531 21.476562 -27.460938 23.25 -27.953125 L 24.640625 -21.4375 C 21.097656 -20.5625 16.597656 -20.039062 11.140625 -19.875 C 8.691406 -15.0625 6.863281 -10.6875 5.65625 -6.75 C 8.914062 -7.3125 12.390625 -8.125 16.078125 -9.1875 C 19.773438 -10.25 23.488281 -11.84375 27.21875 -13.96875 L 28.484375 -7.890625 C 24.835938 -5.359375 20.664062 -3.191406 15.96875 -1.390625 C 11.34375 0.378906 7.242188 1.382812 3.671875 1.625 L -3.796875 -5.296875 C -1.421875 -13.171875 2.613281 -21.460938 8.3125 -30.171875 C 10.082031 -32.898438 11.96875 -35.53125 13.96875 -38.0625 L 19.328125 -33.125 C 17.765625 -30.957031 16.320312 -28.789062 15 -26.625 Z M 15 -26.625 "/></g></g></g><g fill="#ff5055" fill-opacity="0.302"><g transform="translate(227.238689, 202.510316)"><g><path d="M 14.640625 -34.09375 C 13.710938 -35.050781 13.25 -36.21875 13.25 -37.59375 C 13.25 -38.957031 13.71875 -40.109375 14.65625 -41.046875 C 15.601562 -41.992188 16.757812 -42.46875 18.125 -42.46875 C 19.488281 -42.46875 20.644531 -41.992188 21.59375 -41.046875 C 22.539062 -40.109375 23.015625 -38.957031 23.015625 -37.59375 C 23.015625 -36.21875 22.539062 -35.054688 21.59375 -34.109375 C 20.644531 -33.171875 19.488281 -32.703125 18.125 -32.703125 C 16.757812 -32.703125 15.597656 -33.164062 14.640625 -34.09375 Z M 5.546875 -7.59375 C 9.640625 -8.832031 14.554688 -10.957031 20.296875 -13.96875 L 21.5625 -7.890625 C 17.664062 -5.359375 12.96875 -2.890625 7.46875 -0.484375 C 5.625 0.316406 3.816406 1.019531 2.046875 1.625 L -4.875 -4.765625 C -2.90625 -10.140625 0.625 -16.84375 5.71875 -24.875 C 7.25 -27.28125 8.734375 -29.390625 10.171875 -31.203125 L 16.140625 -26.796875 C 13.210938 -22.785156 10.363281 -17.945312 7.59375 -12.28125 C 6.789062 -10.601562 6.109375 -9.039062 5.546875 -7.59375 Z M 5.546875 -7.59375 "/></g></g></g><g fill="#ff5055" fill-opacity="0.302"><g transform="translate(247.232944, 202.510316)"><g><path d="M 21.75 -6.8125 C 17.894531 -2.351562 12.8125 0.457031 6.5 1.625 L -2.046875 -5.546875 C -2.046875 -9.398438 -1.285156 -13.210938 0.234375 -16.984375 C 2.160156 -21.722656 5.335938 -25.554688 9.765625 -28.484375 C 12.804688 -30.535156 16.117188 -31.800781 19.703125 -32.28125 L 29.28125 -24.09375 C 28.59375 -19.757812 27.425781 -15.984375 25.78125 -12.765625 C 28.664062 -12.929688 31.9375 -13.332031 35.59375 -13.96875 L 36.921875 -7.890625 C 31.703125 -5.722656 27.609375 -4.257812 24.640625 -3.5 Z M 6.015625 -6.5625 C 10.597656 -7.601562 14.414062 -10.4375 17.46875 -15.0625 C 18.75 -17.03125 19.671875 -18.914062 20.234375 -20.71875 C 20.796875 -22.53125 21.097656 -23.976562 21.140625 -25.0625 C 17.890625 -24.613281 14.796875 -22.882812 11.859375 -19.875 C 8.210938 -16.144531 6.265625 -11.707031 6.015625 -6.5625 Z M 6.015625 -6.5625 "/></g></g></g><g fill="#ff5055" fill-opacity="0.302"><g transform="translate(282.524018, 202.510316)"><g><path d="M 11.75 -20.96875 C 15.757812 -24.132812 19.914062 -26.863281 24.21875 -29.15625 L 31.5 -23.4375 C 30.175781 -17.726562 27.847656 -12.585938 24.515625 -8.015625 C 28.523438 -9.378906 33.082031 -11.363281 38.1875 -13.96875 L 39.453125 -7.890625 C 37.804688 -6.804688 35.296875 -5.421875 31.921875 -3.734375 C 26.140625 -0.878906 22.144531 0.90625 19.9375 1.625 L 12.46875 -3.671875 C 14.875 -6.566406 16.890625 -9.425781 18.515625 -12.25 C 20.148438 -15.082031 21.207031 -17.566406 21.6875 -19.703125 C 16.539062 -17.285156 11.640625 -14.472656 6.984375 -11.265625 C 5.140625 -6.847656 3.570312 -2.550781 2.28125 1.625 L -4.875 -3.015625 C -3.507812 -7.628906 -1.382812 -12.828125 1.5 -18.609375 C 4.113281 -23.785156 6.847656 -28.164062 9.703125 -31.75 L 15.78125 -27.34375 C 14.375 -25.457031 13.03125 -23.332031 11.75 -20.96875 Z M 11.75 -20.96875 "/></g></g></g><g fill="#ff5055" fill-opacity="0.502"><g transform="translate(62.575087, 199.848358)"><g><path d="M 7.53125 -8.4375 C 11.707031 -7.550781 17.046875 -6.785156 23.546875 -6.140625 L 20.96875 2.234375 C 15.457031 1.742188 11.507812 1.28125 9.125 0.84375 C 6.738281 0.40625 4.863281 0.046875 3.5 -0.234375 L -3.734375 -6.8125 C 1.160156 -17.007812 8.367188 -28.570312 17.890625 -41.5 L 24.09375 -35.234375 C 18.832031 -28.003906 13.3125 -19.070312 7.53125 -8.4375 Z M 7.53125 -8.4375 "/></g></g></g><g fill="#ff5055" fill-opacity="0.502"><g transform="translate(93.289152, 199.848358)"><g><path d="M 21.75 -6.8125 C 17.894531 -2.351562 12.8125 0.457031 6.5 1.625 L -2.046875 -5.546875 C -2.046875 -9.398438 -1.285156 -13.210938 0.234375 -16.984375 C 2.160156 -21.722656 5.335938 -25.554688 9.765625 -28.484375 C 12.804688 -30.535156 16.117188 -31.800781 19.703125 -32.28125 L 29.28125 -24.09375 C 28.59375 -19.757812 27.425781 -15.984375 25.78125 -12.765625 C 28.664062 -12.929688 31.9375 -13.332031 35.59375 -13.96875 L 36.921875 -7.890625 C 31.703125 -5.722656 27.609375 -4.257812 24.640625 -3.5 Z M 6.015625 -6.5625 C 10.597656 -7.601562 14.414062 -10.4375 17.46875 -15.0625 C 18.75 -17.03125 19.671875 -18.914062 20.234375 -20.71875 C 20.796875 -22.53125 21.097656 -23.976562 21.140625 -25.0625 C 17.890625 -24.613281 14.796875 -22.882812 11.859375 -19.875 C 8.210938 -16.144531 6.265625 -11.707031 6.015625 -6.5625 Z M 6.015625 -6.5625 "/></g></g></g><g fill="#ff5055" fill-opacity="0.502"><g transform="translate(128.580214, 199.848358)"><g><path d="M 6.625 -6.203125 C 16.46875 -7.484375 25.019531 -10.070312 32.28125 -13.96875 L 33.609375 -7.890625 C 27.421875 -3.992188 20.554688 -1.160156 13.015625 0.609375 C 10.484375 1.171875 7.992188 1.507812 5.546875 1.625 L -1.921875 -5.296875 C -1.921875 -8.148438 -1.742188 -10.359375 -1.390625 -11.921875 C 0.179688 -18.546875 4.019531 -23.890625 10.125 -27.953125 C 12.851562 -29.753906 15.625 -31.097656 18.4375 -31.984375 L 28.0625 -24.8125 C 27.863281 -23.894531 27.300781 -22.429688 26.375 -20.421875 C 24.851562 -17.046875 23.648438 -14.738281 22.765625 -13.5 L 15.171875 -18.3125 C 17.347656 -21.039062 18.71875 -23.328125 19.28125 -25.171875 C 15.425781 -23.523438 12.289062 -20.878906 9.875 -17.234375 C 7.707031 -13.929688 6.625 -10.253906 6.625 -6.203125 Z M 6.625 -6.203125 "/></g></g></g><g fill="#ff5055" fill-opacity="0.502"><g transform="translate(160.55898, 199.848358)"><g><path d="M 16.390625 -3.796875 C 13.210938 -1.304688 9.554688 0.5 5.421875 1.625 L -2.046875 -5.296875 C -2.046875 -8.472656 -1.5625 -11.585938 -0.59375 -14.640625 C 0.363281 -17.691406 1.785156 -20.441406 3.671875 -22.890625 C 5.554688 -25.335938 7.894531 -27.375 10.6875 -29 C 13.476562 -30.625 16.703125 -31.597656 20.359375 -31.921875 L 24.328125 -25.84375 C 24.816406 -26.601562 25.84375 -27.925781 27.40625 -29.8125 L 33.3125 -24.75 C 29.332031 -19.570312 26.039062 -14.03125 23.4375 -8.125 L 23.25 -8.015625 C 25.582031 -8.617188 28.3125 -9.648438 31.4375 -11.109375 C 34.570312 -12.578125 36.5625 -13.53125 37.40625 -13.96875 L 38.734375 -7.890625 C 36.359375 -6.160156 32.421875 -3.929688 26.921875 -1.203125 C 24.753906 -0.117188 22.785156 0.742188 21.015625 1.390625 Z M 6.390625 -7.046875 C 10.679688 -8.210938 14.59375 -11.0625 18.125 -15.59375 C 19.175781 -17.882812 19.960938 -20.738281 20.484375 -24.15625 C 16.347656 -23.75 12.953125 -21.921875 10.296875 -18.671875 C 7.691406 -15.460938 6.390625 -11.585938 6.390625 -7.046875 Z M 6.390625 -7.046875 "/></g></g></g><g fill="#ff5055" fill-opacity="0.502"><g transform="translate(197.65676, 199.848358)"><g><path d="M 15 -26.625 C 18.726562 -27.019531 21.476562 -27.460938 23.25 -27.953125 L 24.640625 -21.4375 C 21.097656 -20.5625 16.597656 -20.039062 11.140625 -19.875 C 8.691406 -15.0625 6.863281 -10.6875 5.65625 -6.75 C 8.914062 -7.3125 12.390625 -8.125 16.078125 -9.1875 C 19.773438 -10.25 23.488281 -11.84375 27.21875 -13.96875 L 28.484375 -7.890625 C 24.835938 -5.359375 20.664062 -3.191406 15.96875 -1.390625 C 11.34375 0.378906 7.242188 1.382812 3.671875 1.625 L -3.796875 -5.296875 C -1.421875 -13.171875 2.613281 -21.460938 8.3125 -30.171875 C 10.082031 -32.898438 11.96875 -35.53125 13.96875 -38.0625 L 19.328125 -33.125 C 17.765625 -30.957031 16.320312 -28.789062 15 -26.625 Z M 15 -26.625 "/></g></g></g><g fill="#ff5055" fill-opacity="0.502"><g transform="translate(224.576735, 199.848358)"><g><path d="M 14.640625 -34.09375 C 13.710938 -35.050781 13.25 -36.21875 13.25 -37.59375 C 13.25 -38.957031 13.71875 -40.109375 14.65625 -41.046875 C 15.601562 -41.992188 16.757812 -42.46875 18.125 -42.46875 C 19.488281 -42.46875 20.644531 -41.992188 21.59375 -41.046875 C 22.539062 -40.109375 23.015625 -38.957031 23.015625 -37.59375 C 23.015625 -36.21875 22.539062 -35.054688 21.59375 -34.109375 C 20.644531 -33.171875 19.488281 -32.703125 18.125 -32.703125 C 16.757812 -32.703125 15.597656 -33.164062 14.640625 -34.09375 Z M 5.546875 -7.59375 C 9.640625 -8.832031 14.554688 -10.957031 20.296875 -13.96875 L 21.5625 -7.890625 C 17.664062 -5.359375 12.96875 -2.890625 7.46875 -0.484375 C 5.625 0.316406 3.816406 1.019531 2.046875 1.625 L -4.875 -4.765625 C -2.90625 -10.140625 0.625 -16.84375 5.71875 -24.875 C 7.25 -27.28125 8.734375 -29.390625 10.171875 -31.203125 L 16.140625 -26.796875 C 13.210938 -22.785156 10.363281 -17.945312 7.59375 -12.28125 C 6.789062 -10.601562 6.109375 -9.039062 5.546875 -7.59375 Z M 5.546875 -7.59375 "/></g></g></g><g fill="#ff5055" fill-opacity="0.502"><g transform="translate(244.570991, 199.848358)"><g><path d="M 21.75 -6.8125 C 17.894531 -2.351562 12.8125 0.457031 6.5 1.625 L -2.046875 -5.546875 C -2.046875 -9.398438 -1.285156 -13.210938 0.234375 -16.984375 C 2.160156 -21.722656 5.335938 -25.554688 9.765625 -28.484375 C 12.804688 -30.535156 16.117188 -31.800781 19.703125 -32.28125 L 29.28125 -24.09375 C 28.59375 -19.757812 27.425781 -15.984375 25.78125 -12.765625 C 28.664062 -12.929688 31.9375 -13.332031 35.59375 -13.96875 L 36.921875 -7.890625 C 31.703125 -5.722656 27.609375 -4.257812 24.640625 -3.5 Z M 6.015625 -6.5625 C 10.597656 -7.601562 14.414062 -10.4375 17.46875 -15.0625 C 18.75 -17.03125 19.671875 -18.914062 20.234375 -20.71875 C 20.796875 -22.53125 21.097656 -23.976562 21.140625 -25.0625 C 17.890625 -24.613281 14.796875 -22.882812 11.859375 -19.875 C 8.210938 -16.144531 6.265625 -11.707031 6.015625 -6.5625 Z M 6.015625 -6.5625 "/></g></g></g><g fill="#ff5055" fill-opacity="0.502"><g transform="translate(279.862064, 199.848358)"><g><path d="M 11.75 -20.96875 C 15.757812 -24.132812 19.914062 -26.863281 24.21875 -29.15625 L 31.5 -23.4375 C 30.175781 -17.726562 27.847656 -12.585938 24.515625 -8.015625 C 28.523438 -9.378906 33.082031 -11.363281 38.1875 -13.96875 L 39.453125 -7.890625 C 37.804688 -6.804688 35.296875 -5.421875 31.921875 -3.734375 C 26.140625 -0.878906 22.144531 0.90625 19.9375 1.625 L 12.46875 -3.671875 C 14.875 -6.566406 16.890625 -9.425781 18.515625 -12.25 C 20.148438 -15.082031 21.207031 -17.566406 21.6875 -19.703125 C 16.539062 -17.285156 11.640625 -14.472656 6.984375 -11.265625 C 5.140625 -6.847656 3.570312 -2.550781 2.28125 1.625 L -4.875 -3.015625 C -3.507812 -7.628906 -1.382812 -12.828125 1.5 -18.609375 C 4.113281 -23.785156 6.847656 -28.164062 9.703125 -31.75 L 15.78125 -27.34375 C 14.375 -25.457031 13.03125 -23.332031 11.75 -20.96875 Z M 11.75 -20.96875 "/></g></g></g><g fill="#ffd200" fill-opacity="1"><g transform="translate(59.913133, 197.186401)"><g><path d="M 7.53125 -8.4375 C 11.707031 -7.550781 17.046875 -6.785156 23.546875 -6.140625 L 20.96875 2.234375 C 15.457031 1.742188 11.507812 1.28125 9.125 0.84375 C 6.738281 0.40625 4.863281 0.046875 3.5 -0.234375 L -3.734375 -6.8125 C 1.160156 -17.007812 8.367188 -28.570312 17.890625 -41.5 L 24.09375 -35.234375 C 18.832031 -28.003906 13.3125 -19.070312 7.53125 -8.4375 Z M 7.53125 -8.4375 "/></g></g></g><g fill="#ffd200" fill-opacity="1"><g transform="translate(90.627198, 197.186401)"><g><path d="M 21.75 -6.8125 C 17.894531 -2.351562 12.8125 0.457031 6.5 1.625 L -2.046875 -5.546875 C -2.046875 -9.398438 -1.285156 -13.210938 0.234375 -16.984375 C 2.160156 -21.722656 5.335938 -25.554688 9.765625 -28.484375 C 12.804688 -30.535156 16.117188 -31.800781 19.703125 -32.28125 L 29.28125 -24.09375 C 28.59375 -19.757812 27.425781 -15.984375 25.78125 -12.765625 C 28.664062 -12.929688 31.9375 -13.332031 35.59375 -13.96875 L 36.921875 -7.890625 C 31.703125 -5.722656 27.609375 -4.257812 24.640625 -3.5 Z M 6.015625 -6.5625 C 10.597656 -7.601562 14.414062 -10.4375 17.46875 -15.0625 C 18.75 -17.03125 19.671875 -18.914062 20.234375 -20.71875 C 20.796875 -22.53125 21.097656 -23.976562 21.140625 -25.0625 C 17.890625 -24.613281 14.796875 -22.882812 11.859375 -19.875 C 8.210938 -16.144531 6.265625 -11.707031 6.015625 -6.5625 Z M 6.015625 -6.5625 "/></g></g></g><g fill="#ffd200" fill-opacity="1"><g transform="translate(125.91826, 197.186401)"><g><path d="M 6.625 -6.203125 C 16.46875 -7.484375 25.019531 -10.070312 32.28125 -13.96875 L 33.609375 -7.890625 C 27.421875 -3.992188 20.554688 -1.160156 13.015625 0.609375 C 10.484375 1.171875 7.992188 1.507812 5.546875 1.625 L -1.921875 -5.296875 C -1.921875 -8.148438 -1.742188 -10.359375 -1.390625 -11.921875 C 0.179688 -18.546875 4.019531 -23.890625 10.125 -27.953125 C 12.851562 -29.753906 15.625 -31.097656 18.4375 -31.984375 L 28.0625 -24.8125 C 27.863281 -23.894531 27.300781 -22.429688 26.375 -20.421875 C 24.851562 -17.046875 23.648438 -14.738281 22.765625 -13.5 L 15.171875 -18.3125 C 17.347656 -21.039062 18.71875 -23.328125 19.28125 -25.171875 C 15.425781 -23.523438 12.289062 -20.878906 9.875 -17.234375 C 7.707031 -13.929688 6.625 -10.253906 6.625 -6.203125 Z M 6.625 -6.203125 "/></g></g></g><g fill="#ffd200" fill-opacity="1"><g transform="translate(157.897026, 197.186401)"><g><path d="M 16.390625 -3.796875 C 13.210938 -1.304688 9.554688 0.5 5.421875 1.625 L -2.046875 -5.296875 C -2.046875 -8.472656 -1.5625 -11.585938 -0.59375 -14.640625 C 0.363281 -17.691406 1.785156 -20.441406 3.671875 -22.890625 C 5.554688 -25.335938 7.894531 -27.375 10.6875 -29 C 13.476562 -30.625 16.703125 -31.597656 20.359375 -31.921875 L 24.328125 -25.84375 C 24.816406 -26.601562 25.84375 -27.925781 27.40625 -29.8125 L 33.3125 -24.75 C 29.332031 -19.570312 26.039062 -14.03125 23.4375 -8.125 L 23.25 -8.015625 C 25.582031 -8.617188 28.3125 -9.648438 31.4375 -11.109375 C 34.570312 -12.578125 36.5625 -13.53125 37.40625 -13.96875 L 38.734375 -7.890625 C 36.359375 -6.160156 32.421875 -3.929688 26.921875 -1.203125 C 24.753906 -0.117188 22.785156 0.742188 21.015625 1.390625 Z M 6.390625 -7.046875 C 10.679688 -8.210938 14.59375 -11.0625 18.125 -15.59375 C 19.175781 -17.882812 19.960938 -20.738281 20.484375 -24.15625 C 16.347656 -23.75 12.953125 -21.921875 10.296875 -18.671875 C 7.691406 -15.460938 6.390625 -11.585938 6.390625 -7.046875 Z M 6.390625 -7.046875 "/></g></g></g><g fill="#ffd200" fill-opacity="1"><g transform="translate(194.994806, 197.186401)"><g><path d="M 15 -26.625 C 18.726562 -27.019531 21.476562 -27.460938 23.25 -27.953125 L 24.640625 -21.4375 C 21.097656 -20.5625 16.597656 -20.039062 11.140625 -19.875 C 8.691406 -15.0625 6.863281 -10.6875 5.65625 -6.75 C 8.914062 -7.3125 12.390625 -8.125 16.078125 -9.1875 C 19.773438 -10.25 23.488281 -11.84375 27.21875 -13.96875 L 28.484375 -7.890625 C 24.835938 -5.359375 20.664062 -3.191406 15.96875 -1.390625 C 11.34375 0.378906 7.242188 1.382812 3.671875 1.625 L -3.796875 -5.296875 C -1.421875 -13.171875 2.613281 -21.460938 8.3125 -30.171875 C 10.082031 -32.898438 11.96875 -35.53125 13.96875 -38.0625 L 19.328125 -33.125 C 17.765625 -30.957031 16.320312 -28.789062 15 -26.625 Z M 15 -26.625 "/></g></g></g><g fill="#ffd200" fill-opacity="1"><g transform="translate(221.914781, 197.186401)"><g><path d="M 14.640625 -34.09375 C 13.710938 -35.050781 13.25 -36.21875 13.25 -37.59375 C 13.25 -38.957031 13.71875 -40.109375 14.65625 -41.046875 C 15.601562 -41.992188 16.757812 -42.46875 18.125 -42.46875 C 19.488281 -42.46875 20.644531 -41.992188 21.59375 -41.046875 C 22.539062 -40.109375 23.015625 -38.957031 23.015625 -37.59375 C 23.015625 -36.21875 22.539062 -35.054688 21.59375 -34.109375 C 20.644531 -33.171875 19.488281 -32.703125 18.125 -32.703125 C 16.757812 -32.703125 15.597656 -33.164062 14.640625 -34.09375 Z M 5.546875 -7.59375 C 9.640625 -8.832031 14.554688 -10.957031 20.296875 -13.96875 L 21.5625 -7.890625 C 17.664062 -5.359375 12.96875 -2.890625 7.46875 -0.484375 C 5.625 0.316406 3.816406 1.019531 2.046875 1.625 L -4.875 -4.765625 C -2.90625 -10.140625 0.625 -16.84375 5.71875 -24.875 C 7.25 -27.28125 8.734375 -29.390625 10.171875 -31.203125 L 16.140625 -26.796875 C 13.210938 -22.785156 10.363281 -17.945312 7.59375 -12.28125 C 6.789062 -10.601562 6.109375 -9.039062 5.546875 -7.59375 Z M 5.546875 -7.59375 "/></g></g></g><g fill="#ffd200" fill-opacity="1"><g transform="translate(241.909037, 197.186401)"><g><path d="M 21.75 -6.8125 C 17.894531 -2.351562 12.8125 0.457031 6.5 1.625 L -2.046875 -5.546875 C -2.046875 -9.398438 -1.285156 -13.210938 0.234375 -16.984375 C 2.160156 -21.722656 5.335938 -25.554688 9.765625 -28.484375 C 12.804688 -30.535156 16.117188 -31.800781 19.703125 -32.28125 L 29.28125 -24.09375 C 28.59375 -19.757812 27.425781 -15.984375 25.78125 -12.765625 C 28.664062 -12.929688 31.9375 -13.332031 35.59375 -13.96875 L 36.921875 -7.890625 C 31.703125 -5.722656 27.609375 -4.257812 24.640625 -3.5 Z M 6.015625 -6.5625 C 10.597656 -7.601562 14.414062 -10.4375 17.46875 -15.0625 C 18.75 -17.03125 19.671875 -18.914062 20.234375 -20.71875 C 20.796875 -22.53125 21.097656 -23.976562 21.140625 -25.0625 C 17.890625 -24.613281 14.796875 -22.882812 11.859375 -19.875 C 8.210938 -16.144531 6.265625 -11.707031 6.015625 -6.5625 Z M 6.015625 -6.5625 "/></g></g></g><g fill="#ffd200" fill-opacity="1"><g transform="translate(277.20011, 197.186401)"><g><path d="M 11.75 -20.96875 C 15.757812 -24.132812 19.914062 -26.863281 24.21875 -29.15625 L 31.5 -23.4375 C 30.175781 -17.726562 27.847656 -12.585938 24.515625 -8.015625 C 28.523438 -9.378906 33.082031 -11.363281 38.1875 -13.96875 L 39.453125 -7.890625 C 37.804688 -6.804688 35.296875 -5.421875 31.921875 -3.734375 C 26.140625 -0.878906 22.144531 0.90625 19.9375 1.625 L 12.46875 -3.671875 C 14.875 -6.566406 16.890625 -9.425781 18.515625 -12.25 C 20.148438 -15.082031 21.207031 -17.566406 21.6875 -19.703125 C 16.539062 -17.285156 11.640625 -14.472656 6.984375 -11.265625 C 5.140625 -6.847656 3.570312 -2.550781 2.28125 1.625 L -4.875 -3.015625 C -3.507812 -7.628906 -1.382812 -12.828125 1.5 -18.609375 C 4.113281 -23.785156 6.847656 -28.164062 9.703125 -31.75 L 15.78125 -27.34375 C 14.375 -25.457031 13.03125 -23.332031 11.75 -20.96875 Z M 11.75 -20.96875 "/></g></g></g><g fill="#000000" fill-opacity="1"><g transform="translate(89.027772, 229.306162)"><g><path d="M 0.671875 -11.59375 L 0.671875 -6.90625 L 3.078125 -6.90625 L 3.078125 -9.453125 L 8.546875 -9.453125 L 8.546875 -2.140625 L 5.046875 -2.140625 L 5.046875 0 L 14.78125 0 L 14.78125 -2.140625 L 11.28125 -2.140625 L 11.28125 -9.453125 L 16.765625 -9.453125 L 16.765625 -6.90625 L 19.1875 -6.90625 L 19.1875 -11.59375 Z M 0.671875 -11.59375 "/></g></g></g><g fill="#000000" fill-opacity="1"><g transform="translate(113.321095, 229.306162)"><g><path d="M 20.734375 -4.703125 L 20.734375 -4.046875 C 20.734375 -2.828125 19.828125 -2.03125 18.828125 -2.03125 C 17.765625 -2.03125 17.09375 -2.484375 16.078125 -3.46875 C 15.40625 -4.125 14.84375 -4.5625 14.265625 -4.828125 L 15.34375 -4.828125 C 18.171875 -4.828125 19.96875 -6.0625 19.96875 -8.21875 C 19.96875 -10.390625 18.109375 -11.59375 15.09375 -11.59375 L 1.046875 -11.59375 L 1.046875 -9.4375 L 4.5 -9.4375 L 4.5 -2.15625 L 1.046875 -2.15625 L 1.046875 0 L 10.546875 0 L 10.546875 -2.140625 L 7.234375 -2.140625 L 7.234375 -4.828125 L 9.609375 -4.828125 C 12 -4.828125 12.53125 -4.046875 13.625 -2.78125 C 14.765625 -1.453125 16.3125 0.234375 18.828125 0.234375 C 21.15625 0.234375 23.09375 -1.640625 23.09375 -4.109375 L 23.09375 -4.703125 Z M 15.1875 -9.4375 C 16.5 -9.4375 17.234375 -9.015625 17.234375 -8.21875 C 17.234375 -7.34375 16.5 -6.84375 15.1875 -6.84375 L 7.234375 -6.84375 L 7.234375 -9.4375 Z M 15.1875 -9.4375 "/></g></g></g><g fill="#000000" fill-opacity="1"><g transform="translate(140.585533, 229.306162)"><g><path d="M 19.390625 -2.140625 L 13.71875 -9.453125 L 15.984375 -9.453125 L 15.984375 -11.59375 L 6.390625 -11.59375 L 6.390625 -9.453125 L 8.671875 -9.453125 L 2.984375 -2.140625 L -0.171875 -2.140625 L -0.171875 0 L 8.203125 0 L 8.203125 -2.140625 L 5.96875 -2.140625 L 7.203125 -3.875 L 15.1875 -3.875 L 16.40625 -2.140625 L 14.1875 -2.140625 L 14.1875 0 L 22.546875 0 L 22.546875 -2.140625 Z M 8.53125 -5.765625 L 11.171875 -9.453125 L 11.234375 -9.453125 L 13.84375 -5.765625 Z M 8.53125 -5.765625 "/></g></g></g><g fill="#000000" fill-opacity="1"><g transform="translate(167.394175, 229.306162)"><g><path d="M 17.359375 -4.453125 C 15.484375 -3.015625 13.0625 -2 9.6875 -2 C 6.515625 -2 3.890625 -3.453125 3.890625 -5.796875 C 3.890625 -7.96875 5.96875 -9.671875 9.40625 -9.671875 C 12.453125 -9.671875 14.875 -8.734375 16.625 -7.046875 L 18.421875 -7.390625 L 18.40625 -11.59375 L 16 -11.59375 L 16.015625 -9.671875 C 14.234375 -11.0625 11.953125 -11.828125 9.40625 -11.828125 C 4.78125 -11.828125 1.015625 -9.640625 1.015625 -5.765625 C 1.015625 -1.921875 4.828125 0.21875 9.6875 0.21875 C 13.71875 0.21875 16.65625 -1.09375 18.5625 -2.515625 Z M 17.359375 -4.453125 "/></g></g></g><g fill="#000000" fill-opacity="1"><g transform="translate(191.484923, 229.306162)"><g><path d="M 19.171875 -2.140625 L 13.21875 -6.4375 L 18.0625 -9.4375 L 20.90625 -9.4375 L 20.90625 -11.59375 L 12.171875 -11.59375 L 12.171875 -9.4375 L 14.734375 -9.4375 L 7.203125 -4.953125 L 7.203125 -9.4375 L 10.484375 -9.4375 L 10.484375 -11.59375 L 1.046875 -11.59375 L 1.046875 -9.4375 L 4.5 -9.4375 L 4.5 -2.140625 L 1.046875 -2.140625 L 1.046875 0 L 10.484375 0 L 10.484375 -2.140625 L 7.203125 -2.140625 L 7.203125 -2.671875 L 10.921875 -5 L 15.0625 -2.140625 L 12.671875 -2.140625 L 12.671875 0 L 21.421875 0 L 21.421875 -2.140625 Z M 19.171875 -2.140625 "/></g></g></g><g fill="#000000" fill-opacity="1"><g transform="translate(217.500149, 229.306162)"><g><path d="M 10.65625 -9.4375 L 10.65625 -11.59375 L 1.046875 -11.59375 L 1.046875 -9.4375 L 4.5 -9.4375 L 4.5 -2.140625 L 1.046875 -2.140625 L 1.046875 0 L 10.65625 0 L 10.65625 -2.140625 L 7.234375 -2.140625 L 7.234375 -9.4375 Z M 10.65625 -9.4375 "/></g></g></g><g fill="#000000" fill-opacity="1"><g transform="translate(233.639767, 229.306162)"><g><path d="M 24.453125 -11.59375 L 15.09375 -11.59375 L 15.09375 -9.4375 L 18.53125 -9.4375 L 18.53125 -3.84375 L 7.125 -11.59375 L 1.046875 -11.59375 L 1.046875 -9.4375 L 4.5 -9.4375 L 4.5 -2.140625 L 1.046875 -2.140625 L 1.046875 0 L 10.859375 0 L 10.859375 -2.140625 L 7.125 -2.140625 L 7.125 -8.3125 L 19.5625 0.125 L 21.03125 0.09375 L 21.03125 -9.4375 L 24.453125 -9.4375 Z M 24.453125 -11.59375 "/></g></g></g><g fill="#000000" fill-opacity="1"><g transform="translate(262.558584, 229.306162)"><g><path d="M 9.84375 -9.6875 C 12.515625 -9.6875 14.796875 -8.765625 16.515625 -7.390625 L 18.296875 -7.734375 L 18.296875 -11.59375 L 15.875 -11.59375 L 15.875 -9.765625 C 14.0625 -11.171875 11.8125 -11.828125 9.125 -11.828125 C 4.5 -11.828125 0.828125 -9.46875 0.828125 -5.78125 C 0.828125 -2.015625 4.703125 0.21875 9.859375 0.21875 C 13.34375 0.21875 16.296875 -0.875 18.296875 -2.25 L 18.296875 -6.28125 L 9.984375 -6.28125 L 9.984375 -4.265625 L 15.671875 -4.265625 L 15.671875 -3.359375 C 14.453125 -2.578125 12.28125 -1.90625 9.984375 -1.90625 C 6.328125 -1.90625 3.703125 -3.21875 3.703125 -5.78125 C 3.703125 -8.296875 6.40625 -9.6875 9.84375 -9.6875 Z M 9.84375 -9.6875 "/></g></g></g><g clip-path="url(#a1c992161a)"><g clip-path="url(#0e3d85ec1d)"><path fill="#ffffff" d="M 213.449219 147.523438 L 276.441406 147.523438 L 276.441406 172.800781 L 213.449219 172.800781 Z M 213.449219 147.523438 " fill-opacity="1" fill-rule="nonzero"/></g></g><g clip-path="url(#7de10da56b)"><path fill="#69acdb" d="M 239.121094 103.035156 C 248.851562 103.035156 256.746094 110.953125 256.746094 120.703125 C 256.746094 130.457031 239.121094 166.007812 239.121094 166.007812 C 239.121094 166.007812 221.492188 130.457031 221.492188 120.703125 C 221.492188 110.953125 229.390625 103.035156 239.121094 103.035156 Z M 239.121094 103.035156 " fill-opacity="1" fill-rule="evenodd"/></g><path fill="#ffffff" d="M 253.257812 120.351562 C 253.257812 121.28125 253.167969 122.203125 252.984375 123.117188 C 252.804688 124.027344 252.535156 124.914062 252.183594 125.773438 C 251.828125 126.632812 251.390625 127.449219 250.875 128.222656 C 250.359375 128.996094 249.773438 129.714844 249.117188 130.371094 C 248.460938 131.027344 247.746094 131.617188 246.976562 132.132812 C 246.203125 132.648438 245.386719 133.085938 244.53125 133.441406 C 243.671875 133.796875 242.789062 134.066406 241.878906 134.25 C 240.96875 134.429688 240.050781 134.519531 239.121094 134.519531 C 238.191406 134.519531 237.273438 134.429688 236.363281 134.25 C 235.453125 134.066406 234.566406 133.796875 233.710938 133.441406 C 232.851562 133.085938 232.039062 132.648438 231.265625 132.132812 C 230.496094 131.617188 229.78125 131.027344 229.125 130.371094 C 228.46875 129.714844 227.882812 128.996094 227.367188 128.222656 C 226.851562 127.449219 226.414062 126.632812 226.058594 125.773438 C 225.703125 124.914062 225.4375 124.027344 225.253906 123.117188 C 225.074219 122.203125 224.984375 121.28125 224.984375 120.351562 C 224.984375 119.421875 225.074219 118.5 225.253906 117.585938 C 225.4375 116.675781 225.703125 115.789062 226.058594 114.929688 C 226.414062 114.070312 226.851562 113.253906 227.367188 112.480469 C 227.882812 111.707031 228.46875 110.988281 229.125 110.332031 C 229.78125 109.675781 230.496094 109.085938 231.265625 108.570312 C 232.039062 108.054688 232.851562 107.617188 233.710938 107.261719 C 234.566406 106.90625 235.453125 106.636719 236.363281 106.453125 C 237.273438 106.273438 238.191406 106.183594 239.121094 106.183594 C 240.050781 106.183594 240.96875 106.273438 241.878906 106.453125 C 242.789062 106.636719 243.671875 106.90625 244.53125 107.261719 C 245.386719 107.617188 246.203125 108.054688 246.976562 108.570312 C 247.746094 109.085938 248.460938 109.675781 249.117188 110.332031 C 249.773438 110.988281 250.359375 111.707031 250.875 112.480469 C 251.390625 113.253906 251.828125 114.070312 252.183594 114.929688 C 252.535156 115.789062 252.804688 116.675781 252.984375 117.585938 C 253.167969 118.5 253.257812 119.421875 253.257812 120.351562 Z M 253.257812 120.351562 " fill-opacity="1" fill-rule="nonzero"/></svg>